<svg width="512" height="512" viewBox="0 0 512 512" fill="none" xmlns="http://www.w3.org/2000/svg">
<rect width="512" height="512" fill="#FFBA08"/>
<path d="M368.906 317.147V333.418C340.87 364.625 315.086 390.325 291.556 410.517C268.193 430.877 245.33 446.48 222.968 457.327C200.606 468.342 178.995 473.849 158.135 473.849C140.112 473.849 124.592 470.261 111.575 463.085C98.7254 455.909 88.9628 445.395 82.2876 431.544C75.7792 417.86 72.5251 401.589 72.5251 382.732C72.5251 367.879 74.8614 352.192 79.5341 335.671C84.3736 318.983 91.2992 302.212 100.311 285.357C109.322 268.335 120.336 250.812 133.353 232.789C146.537 214.766 161.973 195.825 179.663 175.966C198.02 155.44 216.126 137.75 233.982 122.898C251.839 107.879 268.026 96.1137 282.545 87.6028C297.063 79.0918 310.497 72.7504 322.846 68.5783C335.363 64.4063 345.709 62.3203 353.886 62.3203C362.23 62.3203 369.323 64.3229 375.164 68.328C381.004 72.3332 385.51 78.174 388.681 85.8505C391.852 93.527 393.437 102.372 393.437 112.385C393.437 131.242 387.012 152.269 374.162 175.466C361.313 198.495 345.292 220.774 326.101 242.301C306.909 263.829 288.552 281.435 271.03 295.119C253.674 308.637 241.158 315.395 233.482 315.395C228.308 315.395 223.469 313.393 218.963 309.388C214.624 305.215 212.455 300.543 212.455 295.37C212.455 285.857 217.461 274.343 227.474 260.825C237.654 247.308 248.668 234.959 260.516 223.778C272.532 212.43 279.708 206.756 282.044 206.756C283.212 206.756 283.796 207.256 283.796 208.258C283.796 209.76 282.878 212.346 281.043 216.018C279.374 219.689 278.54 221.942 278.54 222.776C278.54 224.111 279.04 224.779 280.041 224.779C282.878 224.779 291.056 217.186 304.573 202C318.09 186.813 330.44 170.125 341.621 151.935C352.968 133.578 358.642 118.559 358.642 106.878C358.642 102.038 357.558 98.3666 355.388 95.8634C353.386 93.1933 350.298 91.8582 346.126 91.8582C334.445 91.8582 316.672 101.37 292.808 120.395C269.111 139.252 244.746 163.367 219.714 192.738C194.849 221.942 174.072 252.147 157.384 283.354C140.696 314.561 132.352 342.013 132.352 365.71C132.352 379.394 134.354 390.825 138.36 400.004C142.532 409.182 148.539 416.275 156.383 421.281C164.393 426.288 173.989 428.791 185.17 428.791C209.367 428.791 236.819 419.362 267.525 400.504C298.232 381.647 332.025 353.861 368.906 317.147Z" fill="white"/>
</svg>
