<svg width="36" height="35" viewBox="0 0 36 35" fill="none" xmlns="http://www.w3.org/2000/svg">
<path d="M33.6448 14.7403C34.9196 14.718 35.971 15.7333 35.9932 17.0081C36.0155 18.2828 35.0001 19.3342 33.7254 19.3564L33.6448 14.7403ZM1.30711 19.2461C0.390019 18.3604 0.36451 16.899 1.25014 15.9819L15.6823 1.037C16.5679 0.119906 18.0293 0.0943976 18.9464 0.980026C19.8635 1.86566 19.889 3.32705 19.0034 4.24415L6.17481 17.5285L19.4592 30.3571C20.3763 31.2427 20.4018 32.7041 19.5162 33.6212C18.6305 34.5383 17.1691 34.5638 16.252 33.6782L1.30711 19.2461ZM33.6851 17.0483L33.7254 19.3564L2.95098 19.8936L2.91069 17.5855L2.8704 15.2774L33.6448 14.7403L33.6851 17.0483Z" fill="#031335"/>
</svg>
