<svg width="36" height="35" viewBox="0 0 36 35" fill="none" xmlns="http://www.w3.org/2000/svg">
<path d="M2.4524 14.7403C1.17768 14.718 0.126277 15.7333 0.104027 17.0081C0.0817769 18.2828 1.0971 19.3342 2.37182 19.3564L2.4524 14.7403ZM34.7901 19.2461C35.7072 18.3604 35.7327 16.899 34.8471 15.9819L20.4149 1.037C19.5293 0.119906 18.0679 0.0943976 17.1508 0.980026C16.2337 1.86566 16.2082 3.32705 17.0938 4.24415L29.9224 17.5285L16.638 30.3571C15.7209 31.2427 15.6954 32.7041 16.5811 33.6212C17.4667 34.5383 18.9281 34.5638 19.8452 33.6782L34.7901 19.2461ZM2.41211 17.0483L2.37182 19.3564L33.1463 19.8936L33.1865 17.5855L33.2268 15.2774L2.4524 14.7403L2.41211 17.0483Z" fill="#031335"/>
</svg>
