<svg width="41" height="41" viewBox="0 0 41 41" fill="none" xmlns="http://www.w3.org/2000/svg">
<circle cx="20.4514" cy="20.4514" r="19.9526" fill="#FFBA08" stroke="#FFBA08" stroke-width="0.99763"/>
<path d="M11.2234 24.6425C10.5076 25.0557 10.2624 25.971 10.6756 26.6867C11.0889 27.4024 12.0041 27.6477 12.7198 27.2344L11.2234 24.6425ZM30.6965 16.3495C30.9104 15.5512 30.4367 14.7306 29.6384 14.5167L16.6293 11.031C15.831 10.817 15.0104 11.2908 14.7965 12.0891C14.5826 12.8874 15.0564 13.708 15.8547 13.9219L27.4183 17.0203L24.3198 28.584C24.1059 29.3823 24.5797 30.2028 25.378 30.4167C26.1763 30.6306 26.9968 30.1569 27.2107 29.3586L30.6965 16.3495ZM11.9716 25.9385L12.7198 27.2344L29.9993 17.2581L29.2511 15.9622L28.5028 14.6662L11.2234 24.6425L11.9716 25.9385Z" fill="#030B1D"/>
</svg>
